<?xml version="1.0" encoding="UTF-8"?>
<svg width="544" height="480" version="1.1" viewBox="0 0 143.93 127" xmlns="http://www.w3.org/2000/svg" xmlns:cc="http://creativecommons.org/ns#" xmlns:dc="http://purl.org/dc/elements/1.1/" xmlns:rdf="http://www.w3.org/1999/02/22-rdf-syntax-ns#" xmlns:xlink="http://www.w3.org/1999/xlink">
 <metadata>
  <rdf:RDF>
   <cc:Work rdf:about="">
    <dc:format>image/svg+xml</dc:format>
    <dc:type rdf:resource="http://purl.org/dc/dcmitype/StillImage"/>
    <dc:title/>
   </cc:Work>
  </rdf:RDF>
 </metadata>
 <g>
  <path d="m19.573 99.681c-1.4979-0.21926-3.1118-0.91972-4.283-1.8582-1.5597-1.2498-2.6059-2.8527-3.1519-4.8293l-0.23147-0.83786v-56.268l0.23022-0.82747c0.90616-3.2583 3.2592-5.6132 6.515-6.5201l0.8268-0.2304h101.83l0.76652 0.19554c1.666 0.42497 3.1571 1.2713 4.318 2.4508 1.1457 1.1641 1.9007 2.4847 2.3406 4.0937l0.22895 0.83781 0.0285 6.5486 0.0285 6.5487 0.49633 0.05669c2.1116 0.24152 4.0443 1.1718 5.4939 2.6447 1.1436 1.1619 1.8966 2.4778 2.3429 4.0937l0.23147 0.83786v14.72l-0.23147 0.83781c-0.54732 1.982-1.5842 3.5732-3.1418 4.8213-1.2653 1.0139-3.026 1.7335-4.695 1.9187l-0.4964 0.05514-0.0285 6.5922-0.0285 6.5922-0.22894 0.83779c-0.87975 3.2179-3.2705 5.6208-6.4678 6.5006l-0.87035 0.23959-50.654 0.01318c-28.165 0.0066-50.882-0.02548-51.168-0.06371zm101.83-3.2582c1.5912-0.40344 3.0722-1.5848 3.7672-3.0052 0.68355-1.3971 0.62452 1.3815 0.62452-29.396 0-30.777 0.059-27.999-0.62452-29.396-0.69502-1.4204-2.176-2.6018-3.7672-3.0052-0.45961-0.11666-6.263-0.1316-50.962-0.1316-44.699 0-50.502 0.01538-50.962 0.1316-1.5912 0.40344-3.0722 1.5848-3.7672 3.0052-0.68362 1.3971-0.62457-1.3816-0.62457 29.396 0 30.777-0.05906 27.999 0.62457 29.396 0.50753 1.0372 1.4726 2.0033 2.5097 2.5121 0.40633 0.19949 0.95415 0.41882 1.2174 0.48776 0.41373 0.10831 7.3257 0.12611 50.962 0.13138 44.747 0.0022 50.542-0.0066 51.002-0.12567zm8.826-20.917c1.9743-0.55049 3.6216-2.3172 4.0506-4.3443 0.19055-0.9003 0.19055-13.466 0-14.367-0.4956-2.3413-2.4561-4.1571-4.8947-4.5335l-0.37011-0.05712v23.548l0.37011-0.05712c0.20328-0.03164 0.58325-0.11644 0.84403-0.18916z" stroke-width=".32908"/>
  <g fill="#f60">
   <path transform="scale(.26458)" d="m126.9 357.07-49.879-0.12055-2.8083-1.3526c-3.2456-1.5633-6.0758-4.4461-7.9306-8.0779l-1.3009-2.5474 0.0119-103.05 0.0119-103.05 1.1971-2.4101c1.6261-3.2739 4.5256-6.2489 7.7241-7.9253l2.6611-1.3947 57.397-0.21791c31.568-0.11985 57.456-0.15996 57.528-0.0891 0.21594 0.21215 0.23747 189.05 0.024 210.55l-0.19747 19.89-7.2795-0.0429c-4.0037-0.0236-29.725-0.0972-57.159-0.16346z" opacity=".998"/>
   <path transform="scale(.26458)" d="m232.09 357.16-29.582 0.0392 0.10745-39.107c0.0591-21.509 0.0533-68.419-0.0129-104.25s-8e-3 -70.045 0.12987-76.041l0.25023-10.902 63.034-0.0296c34.669-0.0163 63.123 0.0577 63.231 0.16452 0.29791 0.29428 0.404 213.58 0.11058 222.32l-0.25562 7.6101-33.715 0.0784c-18.543 0.0431-47.027 0.096-63.297 0.1175z" opacity=".998" stroke-width="0"/>
  </g>
 </g>
</svg>
