<?xml version="1.0" encoding="UTF-8"?>
<svg width="544" height="480" version="1.1" viewBox="0 0 143.93 127" xmlns="http://www.w3.org/2000/svg" xmlns:cc="http://creativecommons.org/ns#" xmlns:dc="http://purl.org/dc/elements/1.1/" xmlns:rdf="http://www.w3.org/1999/02/22-rdf-syntax-ns#" xmlns:xlink="http://www.w3.org/1999/xlink">
 <metadata>
  <rdf:RDF>
   <cc:Work rdf:about="">
    <dc:format>image/svg+xml</dc:format>
    <dc:type rdf:resource="http://purl.org/dc/dcmitype/StillImage"/>
    <dc:title/>
   </cc:Work>
  </rdf:RDF>
 </metadata>
 <g>
  <path d="m29.443 90.702v-35.967h-8.7713c-4.8242 0-8.7685-0.033-8.7651-0.06944 0.0037-0.03736 6.843-6.0478 15.199-13.355 8.356-7.3068 22.261-19.472 30.9-27.033 8.6388-7.5616 15.73-13.748 15.759-13.748 0.02888 0 8.603 7.4845 19.054 16.632 10.451 9.1478 24.355 21.313 30.899 27.033 6.5438 5.7206 11.901 10.432 11.904 10.471 5e-3 0.03712-3.9618 0.06944-8.8116 0.06944h-8.8178v71.934h-88.549zm33.507 16.429v-16.104h21.441v32.208h30.166v-68.593h-81.68v68.593h30.073zm-24.69-37.174v-9.9316h19.863v19.863h-19.863zm16.429 0v-6.4973h-12.995v12.995h12.995zm34.621 0v-9.9316h19.863v19.863h-19.863zm16.429 0v-6.4973h-12.995v12.995h12.995zm-24.782 38.891v-14.387h-14.572v28.774h14.572zm47.059-56.898c0-0.05087-0.0314-0.09396-0.0697-0.09511-0.038-0.0015-0.28376-0.19984-0.54557-0.44089-0.63312-0.58316-1.5817-1.4195-1.9837-1.749-0.17876-0.14644-0.36664-0.31232-0.4177-0.36858-0.0511-0.05638-1.0744-0.95206-2.274-1.9906-1.1997-1.0386-2.2482-1.9535-2.33-2.0331-0.0818-0.07929-0.39134-0.35369-0.68789-0.60883-0.29657-0.25526-0.58467-0.50849-0.64024-0.56274-0.0555-0.05408-1.1035-0.96824-2.3287-2.0312-1.2252-1.0629-2.2694-1.9794-2.3205-2.0368-0.0511-0.05706-0.23899-0.22459-0.41767-0.3723-0.39508-0.32598-1.4532-1.2534-1.66-1.4552-0.0825-0.08022-1.2986-1.1423-2.7025-2.3597-1.4039-1.2174-2.6189-2.2793-2.7-2.3597-0.0811-0.08067-0.37349-0.34046-0.64973-0.57803-0.27628-0.23745-0.60671-0.52153-0.73433-0.63129-0.12765-0.10955-0.35733-0.31438-0.51049-0.45436-0.15309-0.14026-1.4271-1.2521-2.831-2.4711-1.4039-1.2189-2.6194-2.2821-2.7011-2.3626-0.08158-0.08067-0.29057-0.26807-0.46408-0.41717-0.17349-0.14896-0.48484-0.42045-0.69179-0.6033-0.20694-0.18288-0.5202-0.4578-0.69612-0.61094-2.0599-1.7933-4.7971-4.1854-4.8784-4.2634-0.05684-0.05455-0.34546-0.30778-0.64148-0.56315-0.29605-0.25523-0.58373-0.50758-0.63931-0.56068-0.05546-0.05294-1.1035-0.96767-2.3287-2.0323-1.2252-1.0647-2.2698-1.9819-2.3214-2.0383-0.05156-0.05638-0.36482-0.32969-0.69614-0.60768-0.3313-0.27799-0.66924-0.57026-0.75096-0.64973-0.19274-0.18747-0.31505-0.29454-3.3321-2.9197-1.4038-1.2215-2.6183-2.2871-2.6987-2.3682-0.08044-0.081128-0.37012-0.33549-0.64375-0.56499-0.48028-0.40335-0.65381-0.55545-1.252-1.0987-0.91141-0.8276-3.6606-3.189-3.7128-3.189-0.05225 0-2.8013 2.3614-3.7127 3.189-0.59824 0.54324-0.77172 0.69548-1.252 1.0987-0.27364 0.22959-0.56331 0.48358-0.64375 0.56416-0.08044 0.080673-1.1487 1.0187-2.3739 2.0846-1.2252 1.0661-2.2741 1.9817-2.3309 2.0348-0.05684 0.05294-0.34546 0.30531-0.64148 0.56065-0.29602 0.25526-0.58373 0.50845-0.63931 0.56265-0.05546 0.05431-1.4376 1.2634-3.0712 2.6872-1.6336 1.4238-3.0156 2.6324-3.0712 2.686-0.05546 0.05386-0.34326 0.30613-0.63928 0.56148-0.29605 0.25526-0.58474 0.50866-0.64151 0.56315-0.08136 0.07815-2.8185 2.4701-4.8784 4.2634-0.17594 0.15309-0.48919 0.42805-0.69614 0.61094-0.20694 0.18288-0.51825 0.45436-0.69177 0.6033-0.17351 0.14896-0.38236 0.33675-0.46409 0.41717-0.08165 0.08021-1.2972 1.1423-2.7011 2.3597-1.4039 1.2174-2.62 2.2793-2.7025 2.3598-0.20678 0.2019-1.2649 1.1293-1.66 1.4551-0.17864 0.14736-0.36664 0.3148-0.41768 0.37232-0.05102 0.05706-1.0953 0.97381-2.3205 2.0367-1.2252 1.0629-2.2741 1.977-2.3309 2.0312-0.05682 0.05431-0.34546 0.30737-0.6415 0.56269-0.29603 0.25526-0.58373 0.50808-0.63931 0.56185-0.05556 0.05386-1.4376 1.2627-3.0712 2.6864-1.6336 1.4237-3.0157 2.6328-3.0712 2.6868-0.05551 0.05386-0.34327 0.30696-0.6393 0.56224-0.29606 0.25523-0.58471 0.50866-0.6415 0.56313-0.08129 0.07815-2.8185 2.4701-4.8784 4.2634-0.17594 0.15309-0.48919 0.42808-0.69613 0.61096-0.20694 0.18288-0.51692 0.45439-0.68884 0.6033-0.17193 0.14896-0.52696 0.46811-0.78897 0.70925-0.26204 0.24116-0.5077 0.43949-0.54599 0.44089-0.03807 0.0015-0.06962 0.04423-0.06962 0.09511 0 0.06165 18.146 0.09258 54.252 0.09258 36.106 0 54.252-0.033 54.252-0.09258z" fill="#f9f9f9" stroke-width="1.2262"/>
 </g>
</svg>
