<?xml version="1.0" encoding="UTF-8"?>
<svg width="544" height="480" version="1.1" viewBox="0 0 143.93 127" xmlns="http://www.w3.org/2000/svg" xmlns:cc="http://creativecommons.org/ns#" xmlns:dc="http://purl.org/dc/elements/1.1/" xmlns:rdf="http://www.w3.org/1999/02/22-rdf-syntax-ns#" xmlns:xlink="http://www.w3.org/1999/xlink">
 <metadata>
  <rdf:RDF>
   <cc:Work rdf:about="">
    <dc:format>image/svg+xml</dc:format>
    <dc:type rdf:resource="http://purl.org/dc/dcmitype/StillImage"/>
    <dc:title/>
   </cc:Work>
  </rdf:RDF>
 </metadata>
 <g>
  <path d="m14.975 126.3c-2.4884-0.61091-3.2338-1.8073-3.0393-4.8779 0.12849-2.0268 0.57548-3.0751 12.509-29.329 6.8069-14.975 12.512-27.394 12.678-27.597 0.1663-0.20338 0.51902-0.37206 0.78432-0.37433 1.2182-0.01108 1.3267-0.47814 0.42114-1.8116-6.1699-9.0854-11.139-20.486-12.949-29.71-2.209-11.255-0.90177-20.24 3.9815-27.368 2.2596-3.2981 4.0714-4.4427 7.019-4.4343 1.2415 0.0033 2.0166 0.18714 2.8128 0.66587 0.60447 0.36376 4.8583 4.9227 9.453 10.131 4.5947 5.2086 9.7019 10.989 11.349 12.845 1.6474 1.8564 3.5955 4.0664 4.3291 4.9113 1.264 1.4558 5.8441 6.6062 8.6419 9.7181l1.2872 1.4317 1.1855-0.81794c0.65206-0.44987 2.3193-1.5838 3.7049-2.5198 1.3856-0.93601 4.6533-3.167 7.2615-4.9576 2.6082-1.7907 6.6095-4.5242 8.8917-6.0743 2.2822-1.5502 5.8833-4.0048 8.0025-5.4548l3.853-2.6364 0.20036-2.3775c0.2464-2.9272 1.0024-4.5169 2.6731-5.6216 1.0598-0.70073 1.5855-0.82718 3.7731-0.90755 2.3037-0.08452 2.6944-0.01505 4.1718 0.73986 1.3631 0.69673 1.7637 1.0965 2.4452 2.44 1.0162 2.0034 1.1278 5.0757 0.25396 6.9966-1.1521 2.5327-4.0168 3.9097-7.4816 3.596l-1.7482-0.1585-2.04 2.266c-2.9151 3.238-22.243 25.163-23.217 26.337-0.44826 0.54017-0.81507 1.1592-0.81507 1.3755 0 0.21659 1.2797 1.8376 2.8439 3.6027 1.5641 1.765 4.1316 4.6671 5.7055 6.4489 1.5739 1.7818 3.5285 3.9854 4.3436 4.8969 0.81509 0.91141 2.8157 3.1784 4.4459 5.0378 1.6302 1.8594 3.5113 3.984 4.1804 4.7214 8.7312 9.6229 15.461 17.554 15.771 18.586 0.75173 2.5054 0.35635 4.8781-1.0596 6.3602-3.2685 3.4209-10.43 5.8481-17.22 5.8357-7.6129-0.015-13.927-1.7181-22.863-6.1712-4.959-2.471-6.6252-3.4575-11.458-6.784-1.7253-1.1874-3.1853-2.1106-3.2444-2.0516-0.05904 0.0592 0.49684 5.8915 1.2355 12.961 0.73871 7.0695 1.3601 13.889 1.3809 15.155 0.04271 2.596-0.36544 3.4429-2.1714 4.505-0.98333 0.57833-1.5843 0.593-26.2 0.6396-13.856 0.0263-25.593-0.0506-26.082-0.17056zm51.138-2.5461c0.47858-0.24717 0.95021-0.76787 1.0481-1.1572 0.15262-0.6076-2.6161-29.622-3.0019-31.456-0.07789-0.36904-1.2075-1.5182-2.58-2.6238-2.9262-2.3571-4.6648-3.9033-4.6648-4.1486 0-0.0989 0.31329-0.55176 0.69615-1.0061l0.69611-0.82605 2.4901 2.2237c4.2963 3.8368 9.5251 7.8991 12.864 9.9941 0.97806 0.61372 2.4452 1.5474 3.2603 2.0748 0.81503 0.52738 2.0821 1.2635 2.8157 1.6358 4.4582 2.2628 7.8608 3.8679 9.0642 4.2758 0.75906 0.25734 1.6585 0.61666 1.9988 0.79849 0.59099 0.31584 3.7524 1.1978 6.2758 1.751 0.65206 0.14302 2.8528 0.38863 4.8905 0.54598 4.418 0.34113 7.843-0.0925 11.573-1.466 3.7124-1.3668 7.3956-4.1538 7.3956-5.5963 0-1.3923-1.0526-2.9257-5.2932-7.7107-2.527-2.8514-5.4708-6.1758-6.5417-7.3875-1.0709-1.2117-2.6808-3.0184-3.5773-4.0149-0.89659-0.99653-2.8972-3.2591-4.4459-5.0279-1.5486-1.7688-3.5492-4.0333-4.4458-5.0323-0.89659-0.99895-2.9639-3.3299-4.5941-5.18-1.6302-1.8501-4.5977-5.1952-6.5947-7.4335-1.9969-2.2384-3.6308-4.1818-3.6308-4.3186 0-0.13699 0.49828-0.76107 1.1073-1.3872 0.60901-0.62606 1.3759-1.4996 1.7042-1.9412 0.32841-0.44165 1.4884-1.79 2.5779-2.9964 1.0895-1.2063 6.1388-6.9211 11.221-12.699 5.0819-5.7784 9.3926-10.639 9.5795-10.802 0.18675-0.16262 0.90273-0.97638 1.5909-1.808l1.2512-1.5121 1.4781 0.73039c1.358 0.67103 1.5964 0.70209 2.9328 0.38199 3.3812-0.80994 4.8274-4.361 2.9988-7.3634-1.1358-1.8648-4.2002-2.6394-6.2142-1.5708-2.06 1.0931-3.1722 4.1426-2.2118 6.0649 0.55637 1.1136 0.56621 1.1028-3.5632 3.9046-3.3078 2.2443-6.9048 4.6932-11.115 7.567-1.5486 1.0572-4.7497 3.2407-7.1134 4.8522-2.3637 1.6116-5.6314 3.8444-7.2615 4.962-1.6302 1.1175-3.8798 2.652-4.9991 3.41l-2.0352 1.3781-1.2251-1.4701c-0.67381-0.80858-2.0254-2.3446-3.0034-3.4135-0.97808-1.0688-3.0454-3.3914-4.594-5.1614-1.5487-1.7699-3.5493-4.0353-4.4459-5.0342-0.89656-0.99891-2.914-3.2718-4.4833-5.0508-17.323-19.639-17.715-20.071-18.592-20.531-1.6977-0.89054-4.1022 0.61217-6.3242 3.9524-3.8239 5.7484-5.0848 12.082-4.1 20.595 1.2209 10.554 6.0919 22.501 13.696 33.59 2.6092 3.8051 4.8259 6.8388 5.9479 8.14 0.61131 0.70888 1.1075 1.4314 1.1027 1.6055-0.0036 0.17435-0.41589 0.76386-0.9136 1.3105l-0.9049 0.99382-0.79063-0.76722c-0.43486-0.42198-1.8576-2.0928-3.1618-3.7129-1.3041-1.6201-2.5045-2.9529-2.6675-2.9618-0.4072-0.02264-25.341 55.06-25.341 55.982 0 0.40666 0.27624 1.0903 0.6143 1.5191l0.61429 0.7798h25.038c21.81 0 25.15-0.0581 25.908-0.44931z" fill="#f9f9f9" stroke-width="1.1194"/>
 </g>
</svg>
