<?xml version="1.0" encoding="UTF-8"?>
<svg width="544" height="480" version="1.1" viewBox="0 0 143.93 127" xmlns="http://www.w3.org/2000/svg" xmlns:cc="http://creativecommons.org/ns#" xmlns:dc="http://purl.org/dc/elements/1.1/" xmlns:rdf="http://www.w3.org/1999/02/22-rdf-syntax-ns#" xmlns:xlink="http://www.w3.org/1999/xlink">
 <metadata>
  <rdf:RDF>
   <cc:Work rdf:about="">
    <dc:format>image/svg+xml</dc:format>
    <dc:type rdf:resource="http://purl.org/dc/dcmitype/StillImage"/>
    <dc:title/>
   </cc:Work>
  </rdf:RDF>
 </metadata>
 <g>
  <path d="m53.645 127.15c-1.1892-0.3746-1.1937-0.5013-0.48262-13.607 0.25366-4.6751 0.41907-8.5436 0.36759-8.5965-0.09616-0.0991-1.3244 0.69332-6.4772 4.1783-8.3168 5.625-9.5997 6.4366-10.568 6.6862-2.0666 0.53256-3.1249-0.35106-2.8895-2.4124 0.09785-0.85652 0.97787-3.066 6.7476-16.941 0.74343-1.7878 0.81797-2.0716 0.5557-2.1152-0.31364-0.05235-2.4929 0.44086-11.996 2.7138-6.4739 1.5484-7.1063 1.656-8.1048 1.3795-1.1173-0.30951-1.4697-1.3873-1.0347-3.1645 0.16116-0.65842 0.55457-1.1945 2.1379-2.9131 9.1614-9.944 11.103-12.117 11.103-12.43 0-0.09287-0.23612-0.16848-0.52472-0.16848-0.2886 0-1.2899-0.11731-2.2252-0.26055-0.93524-0.14336-5.0382-0.66778-9.1177-1.1656-4.0795-0.49776-7.7113-0.98959-8.0707-1.093-0.89738-0.25813-1.2409-0.96887-1.1427-2.3645 0.05323-0.75674 0.1766-1.1608 0.43587-1.4276 0.19891-0.20466 4.0983-2.3224 8.6654-4.7062 4.567-2.3838 8.4721-4.4826 8.678-4.664 0.23946-0.21112 0.31384-0.39199 0.20648-0.50244-0.09227-0.09472-1.0632-0.63918-2.1576-1.2094-11.646-6.0685-15.21-8.005-15.463-8.4019-0.40614-0.63768-0.49031-2.0073-0.17162-2.792 0.21112-0.51981 0.40606-0.69634 0.93473-0.84633 0.52869-0.15004 6.0426-0.88613 11.488-1.5338 1.8771-0.2231 7.7262-1.014 8.0717-1.0913 0.21598-0.04817 0.39268-0.15695 0.39268-0.2414 0-0.16571-4.1404-4.7584-9.0368-10.024-4.0765-4.3839-4.2749-4.6559-4.3686-5.9888-0.09445-1.3435 0.17787-2.0561 0.88231-2.3088 1.1476-0.41158 0.96409-0.44565 12.523 2.3253 7.3144 1.7534 7.6446 1.8267 7.9293 1.7616 0.20673-0.04725 0.15469-0.30054-0.27037-1.3155-0.28952-0.69129-1.106-2.6708-1.8144-4.399-0.70839-1.7282-1.8094-4.3945-2.4467-5.9252-2.5135-6.037-2.7258-6.6405-2.7428-7.7981-0.02061-1.4024 0.21242-1.834 1.1271-2.0874 0.56916-0.15764 0.94172-0.14704 1.6986 0.04793 0.95411 0.24587 2.2209 1.044 10.045 6.3284 5.4382 3.673 6.9117 4.6278 7.0009 4.5361 0.05138-0.05278-0.10924-3.8809-0.35694-8.5066-0.71913-13.428-0.72327-13.341 0.65062-13.722 0.99962-0.27692 2.1354-0.060616 2.7352 0.52085 0.77786 0.75423 11.707 15.804 11.908 16.398 0.09902 0.2922 0.14537 1.024 0.10304 1.6261-0.09631 1.3699-0.46056 1.7373-2.2606 2.2798-1.9997 0.60281-4.9251 1.7612-7.197 2.85-1.779 0.85255-2.2357 0.999-3.186 1.0215-0.61008 0.01383-1.1741 0.10256-1.2534 0.1959-0.07929 0.09335-0.23882 0.512-0.35449 0.93046-0.17604 0.6369-0.38696 0.88332-1.2947 1.5127-1.8955 1.3142-4.1848 3.2711-6.5018 5.5579-1.115 1.1005-1.5453 1.4095-2.0943 1.504-0.37999 0.06522-0.77714 0.14589-0.88255 0.17862-0.1054 0.03271-0.24175 0.55284-0.30299 1.1556-0.10238 1.0077-0.24982 1.3107-1.832 3.765-1.5972 2.4776-3.1487 5.3504-3.6952 6.8421-0.29588 0.80761-0.79434 1.3775-1.3247 1.5144-0.40161 0.10371-0.41976 0.17355-0.41976 1.6152 0 1.0335-0.13594 2.0335-0.43279 3.1836-0.54504 2.1118-1.074 5.3242-1.2222 7.4225-0.0628 0.88878-0.23877 1.9903-0.39108 2.4478-0.24988 0.75057-0.25082 0.89968-0.0096 1.5262 0.147 0.3819 0.32304 1.5023 0.39121 2.4899 0.15538 2.251 0.6388 5.2101 1.232 7.5411 0.34722 1.3645 0.44474 2.134 0.40625 3.2059l-0.05065 1.4104 0.7787 0.38508c0.65186 0.32237 0.83345 0.53132 1.1148 1.2828 0.94101 2.5139 2.4934 5.3882 4.461 8.2593 0.73001 1.0653 0.88252 1.434 1.0005 2.419l0.13925 1.1622 0.76974 0.13506c0.99248 0.17424 1.6885 0.68477 3.4919 2.5611 0.8081 0.8408 2.596 2.3943 3.9731 3.4522 2.2683 1.7426 2.5208 1.9918 2.6843 2.6505 0.09922 0.39984 0.21069 0.82088 0.24769 0.93562 0.04261 0.13207 0.51834 0.20857 1.2986 0.20857 1.1476 0 1.4064 0.0819 3.8073 1.2063 1.4168 0.66344 3.8717 1.6474 5.4555 2.1866 1.5838 0.53919 2.9709 1.0579 3.0824 1.1526 0.11156 0.095 0.29015 0.55209 0.39688 1.0163 0.38896 1.6915 0.2845 1.8732-6.0981 10.602-3.2023 4.3794-5.9943 8.0785-6.2045 8.2202-0.4959 0.33427-1.9296 0.46198-2.6475 0.23584zm7.1787-9.9208c3.2351-4.4251 5.9224-8.1544 5.972-8.2872 0.05924-0.1588-0.10184-0.28475-0.47032-0.36805-2.0334-0.45946-6.114-2.066-8.897-3.5028-0.95521-0.49317-1.7377-0.83531-1.7389-0.76034-0.0013 0.0749-0.23582 4.4994-0.5214 9.832-0.56497 10.55-0.59845 11.559-0.37492 11.303 0.08174-0.0939 2.7955-3.7912 6.0306-8.2163zm-8.0483-14.656c0.07586-0.0737-0.199-0.36098-0.61084-0.63845-2.002-1.3488-4.2751-3.2596-6.339-5.3288l-2.2743-2.2801-1.2465 2.9957c-3.5488 8.5289-6.8578 16.605-6.8578 16.737 0 0.1256 16.921-11.09 17.328-11.486zm-26.676-7.0277c2.5016-0.59997 6.9044-1.6537 9.784-2.3415 2.8796-0.6879 5.335-1.2857 5.4564-1.3285 0.14241-0.05001-0.14691-0.58795-0.81503-1.515-1.6323-2.265-4.1287-6.8003-4.9167-8.9328l-0.1828-0.49469-1.4334 1.5225c-1.3753 1.4608-2.5878 2.7935-8.4913 9.333-1.471 1.6294-3.0717 3.3867-3.5571 3.9052-0.48542 0.51843-0.7723 0.94262-0.6375 0.94262 0.13479 0 2.2918-0.49087 4.7934-1.0908zm8.126-17.849c0-0.04793-0.19293-0.77196-0.4287-1.609-0.63197-2.2436-1.2723-5.8224-1.4758-8.2485-0.09846-1.1738-0.21634-2.1725-0.26191-2.2194-0.08186-0.08436-18.028 9.1969-18.313 9.4711-0.18491 0.1777 0.06425 0.21642 6.3432 0.98996 2.8316 0.3488 6.9155 0.86693 9.0752 1.1514 3.9686 0.5227 5.0612 0.62295 5.0612 0.46448zm-1.9298-17.656c0.01837-1.418 0.56952-4.7577 1.235-7.484 0.36158-1.4813 0.62701-2.7265 0.58984-2.767-0.03718-0.04057-0.83375 0.02351-1.7702 0.14243-0.93642 0.11892-3.3126 0.41488-5.2803 0.65778-8.9747 1.1079-13.488 1.6886-13.54 1.742-0.031 0.0318 3.5328 1.9319 7.9196 4.2222 4.3868 2.2903 8.565 4.4789 9.2849 4.8634l1.3089 0.69919 0.12084-0.65029c0.06647-0.35767 0.12536-0.99918 0.1309-1.4256zm3.6178-14.621c1.2614-2.9133 3.1875-6.3336 4.8045-8.5315 0.47003-0.6389 0.83112-1.1784 0.80243-1.1988-0.09536-0.06799-19.415-4.6476-19.948-4.7285-0.5134-0.07789-0.50467-0.05924 0.44992 0.97272 0.53542 0.57872 3.164 3.4761 5.8414 6.4388 4.8041 5.316 7.4303 8.1696 7.5185 8.1696 0.02487 0 0.26385-0.50499 0.53108-1.1222zm9.9883-14.544c1.956-1.9552 4.4404-4.0512 6.336-5.3454 0.35601-0.24306 0.59161-0.49803 0.52357-0.56662-0.11367-0.11478-2.0287-1.4008-13.344-8.9625-2.1837-1.4593-3.9704-2.581-3.9704-2.4927 0 0.08828 0.38295 1.0729 0.851 2.1879 0.46804 1.1149 1.7335 4.1683 2.812 6.7853 1.0786 2.6169 2.3954 5.8084 2.9264 7.0923 0.53094 1.2838 1.0729 2.5967 1.2043 2.9177 0.13146 0.32096 0.28885 0.58354 0.34979 0.58354 0.06096 0 1.1009-0.98978 2.3111-2.1995zm16.247-10.508c1.2958-0.49158 2.8897-1.0379 3.542-1.2141 0.83455-0.2254 1.1595-0.39107 1.0968-0.55918-0.098364-0.26369-11.524-15.97-11.931-16.402-0.2229-0.2361-0.24021 0.052088-0.14022 2.3341 0.1403 3.2018 0.75403 14.93 0.89851 17.171l0.10576 1.64 2.0359-1.0384c1.1197-0.5711 3.0961-1.4406 4.3919-1.9321zm35.751 93.123c-0.99713-0.3759-1.0857-2.1612-0.24386-4.9145 0.24157-0.79002 0.44039-1.6056 0.44182-1.8123 0.0022-0.2669-0.4402-0.70856-1.5244-1.523-0.83988-0.63089-1.7429-1.3792-2.0068-1.6628l-0.47975-0.51574-0.60879 0.54993c-0.89424 0.80777-5.0122 2.0389-8.8158 2.6357-2.5517 0.40035-7.8254 0.54083-10.392 0.27688-2.3918-0.24595-6.7887-1.1036-8.456-1.6494-6.8387-2.2387-12.798-6.0708-17.542-11.281-7.4087-8.136-11.254-18.323-11.254-29.816 0-12.782 4.8517-24.15 13.859-32.475 4.8938-4.5228 11.506-8.0094 17.785-9.379 7.862-1.7146 15.66-1.3611 22.856 1.0359 0.74724 0.24891 1.4737 0.40714 1.6143 0.35159 0.17726-0.06984 0.25573-0.3754 0.25573-0.99566 0-0.5463 0.27029-1.7704 0.69415-3.1437 0.38176-1.2369 0.6529-2.3595 0.60252-2.4946-0.05039-0.13506-1.0633-0.98948-2.2509-1.8986-2.3133-1.7709-2.5362-2.0816-2.5362-3.5349 0-1.9676 0.50357-2.2282 4.3138-2.232 1.5149-0.00155 2.8422-0.062001 2.9496-0.1346 0.10743-0.072604 0.59747-1.4343 1.0891-3.0262 0.49159-1.5918 0.99274-2.9777 1.1137-3.0797 0.12086-0.10187 0.55001-0.27625 0.9535-0.38722 0.85573-0.23538 2.1408 0.016135 2.5488 0.49942 0.13747 0.16249 0.65694 1.5613 1.1546 3.1081 0.5433 1.6888 1.0113 2.8545 1.1714 2.9177 0.14667 0.057854 1.4657 0.1051 2.9314 0.1051 1.5382 0 2.9051 0.0862 3.2332 0.20374 0.97374 0.34922 1.345 1.919 0.78954 3.3386-0.21161 0.54083-0.70279 1.0019-2.4428 2.2929-1.4788 1.0972-2.1781 1.7261-2.1785 1.9593-3e-4 0.18876 0.31358 1.3368 0.69753 2.5509 1.0532 3.3303 0.93478 4.7749-0.42905 5.2363-1.2059 0.40796-2.1972 0.05232-4.4121-1.5831-1.0655-0.78673-2.0947-1.4304-2.287-1.4304-0.19227 0-0.68938 0.26399-1.1047 0.58665-2.948 2.2904-3.909 2.7517-5.2624 2.5258-0.35264-0.05901-0.64807-0.03595-0.65657 0.05116-0.0089 0.08713-0.04454 0.55116-0.08024 1.0315-0.03548 0.48031-0.18359 1.0598-0.32879 1.2878-0.15641 0.24562-1.3505 0.96297-2.9303 1.7604-5.5879 2.8206-9.7317 6.2078-13.482 11.021-5.0298 6.4543-7.8969 14.255-8.2347 22.404-0.25908 6.2499 0.94785 12.139 3.6796 17.955 3.9444 8.3974 10.614 15.12 18.701 18.851 0.95226 0.43932 1.8995 0.96277 2.105 1.1633 0.44703 0.43603 0.68726 0.46132 0.82688 0.0868 0.21552-0.57781 1.2314-0.79988 3.6591-0.79988 1.6706 0 2.3861-0.06432 2.5003-0.22448 0.0879-0.12354 0.46759-1.2162 0.84358-2.4283 0.42806-1.3801 0.83078-2.3461 1.0773-2.5844 0.48599-0.46973 1.8547-0.63678 2.7439-0.33484 0.76471 0.25964 0.9065 0.52596 1.7372 3.2631 0.3914 1.2896 0.74043 2.132 0.91133 2.1995 0.15232 0.06022 1.2547 0.10946 2.4498 0.10946 3.1785 0 3.7324 0.33562 3.7324 2.2619 0 1.371-0.32209 1.8523-2.1534 3.2177-0.92482 0.68947-1.7261 1.3919-1.7807 1.561-0.0546 0.16918 0.14065 1.1326 0.43399 2.1411 0.76412 2.6277 0.67386 4.177-0.26903 4.619-0.59414 0.27851-2.0525 0.25732-2.7438-0.04-0.31242-0.13438-1.1213-0.65946-1.7975-1.1671-0.67623-0.50761-1.4125-0.92291-1.636-0.92291-0.22359 0-1.001 0.4603-1.7275 1.0229-0.72653 0.56259-1.5974 1.1246-1.9353 1.249-0.72416 0.26649-1.8236 0.28392-2.4728 0.0392zm3.633-3.4849 2.5127-1.8921 2.5441 1.9022c1.3992 1.0462 2.5718 1.8737 2.6056 1.8389 0.0338-0.0347-0.36298-1.4282-0.88184-3.0963-0.51883-1.6681-0.90986-3.0887-0.86895-3.1568 0.0409-0.068 1.1829-0.96188 2.5377-1.9862l2.4633-1.8624-3.1936-0.0895-3.1936-0.0898-0.98876-3.1421c-0.70522-2.2411-1.0272-3.0483-1.1228-2.8149-0.0738 0.17999-0.53579 1.5939-1.0268 3.1421l-0.89272 2.8149-3.1844 0.0898-3.1845 0.0895 2.3793 1.7955c1.3086 0.98753 2.4614 1.8498 2.5617 1.916 0.20007 0.13206 0.22648 0.0276-0.99844 3.9642-0.42249 1.3579-0.72597 2.4688-0.67443 2.4688 0.0515 0 1.2244-0.85143 2.6064-1.892zm-20.623-5.4722c1.3438-0.0985 3.3163-0.33893 4.3833-0.53427 2.0973-0.38398 5.8965-1.4526 6.6619-1.8738l0.47337-0.26051-0.60438-0.22147c-1.111-0.40708-4.6446-2.2648-6.2439-3.2826-9.8611-6.2756-16.666-17.101-18.296-29.106-0.39857-2.9354-0.39351-8.0811 0.01094-11.042 1.1723-8.5848 4.8637-16.42 10.648-22.6 3.9646-4.2364 7.471-6.7081 13.695-9.6535l0.77996-0.3691-1.0417-0.40656c-1.6117-0.62904-5.4114-1.5736-7.6993-1.9139-2.7688-0.41186-7.9771-0.41541-10.718-7e-3 -11.379 1.6945-21.004 7.9388-27.305 17.714-6.2523 9.6994-8.2211 21.729-5.4088 33.049 2.0113 8.0957 6.4151 15.478 12.392 20.774 6.4641 5.7277 14.366 9.1099 22.723 9.7262 2.7634 0.20375 2.8863 0.20397 5.5499 9e-3zm17.444-83.912c1.7361-1.302 2.8452-2.0234 2.9622-1.9268 1.4451 1.1931 5.6021 4.1305 5.6475 3.9905 0.0333-0.10256-0.41606-1.6857-0.99842-3.518-0.58237-1.8324-1.0588-3.366-1.0588-3.408 0-0.04194 1.3411-1.0903 2.9803-2.3294l2.9803-2.253-3.7075-0.04839-3.7075-0.04863-1.1606-3.5821c-0.63832-1.9702-1.2039-3.5053-1.2567-3.4115-0.05291 0.094029-0.57951 1.7244-1.1703 3.6234l-1.0741 3.4528-3.6783 0.04841-3.6783 0.04839 5.922 4.4287-1.1081 3.5313c-0.60946 1.9422-1.1095 3.5601-1.1112 3.5953-0.0089 0.17931 0.68263-0.2919 3.2177-2.1931zm-19.253 65.955c-0.89863-0.21158-1.1337-0.56847-1.2077-1.8339-0.05642-0.9642 0.06158-1.5408 0.82841-4.0462 0.49182-1.607 0.85004-2.9953 0.79603-3.0852-0.05396-0.08988-1.1972-0.98109-2.5404-1.9805-1.3433-0.99937-2.5689-2.0159-2.7237-2.259-0.38461-0.60389-0.49787-1.8712-0.23929-2.6773 0.33604-1.0476 0.8247-1.1705 4.6641-1.1737 1.8029-0.0013 3.3677-0.062 3.4775-0.1346 0.1097-0.0726 0.63997-1.5482 1.1782-3.2793 0.53825-1.7311 1.0992-3.3245 1.2466-3.541 0.57826-0.84935 2.7164-0.94044 3.4862-0.14843 0.23467 0.24145 0.77272 1.6045 1.3916 3.5255 0.55494 1.7225 1.0866 3.2328 1.1815 3.3563 0.12633 0.16433 1.066 0.22932 3.5107 0.24235 1.836 0.0092 3.5275 0.07237 3.7588 0.13898 0.97179 0.27968 1.3897 1.7816 0.91097 3.2739-0.17199 0.53611-0.63464 0.95922-2.8038 2.5641-1.4288 1.0571-2.6388 2.0317-2.6888 2.1658-0.04991 0.13414 0.2945 1.4433 0.76559 2.9094 1.1861 3.6914 1.18 5.3548-0.02122 5.7857-1.4582 0.52297-2.4442 0.18369-4.9603-1.7071-2.435-1.8298-2.6105-1.9266-3.0526-1.6832-0.19111 0.1051-1.3133 0.91022-2.4938 1.7889-1.1805 0.87864-2.3592 1.6438-2.6194 1.7003-1.0019 0.21757-1.2772 0.23216-1.845 0.0984zm12.903-5.6491c-0.67895-2.1402-1.2322-3.9859-1.2295-4.1015 2e-3 -0.1157 1.4862-1.301 3.2965-2.6342l3.2916-2.4239-8.2994-0.09586-1.2732-4.0368c-0.70024-2.2202-1.3176-4.0364-1.372-4.0359-0.05435 4.84e-4 -0.66972 1.817-1.3674 4.0367l-1.2686 4.0358-8.2833 0.09586 6.679 4.9489-0.61257 1.9246c-1.6436 5.1641-1.9245 6.1663-1.7034 6.079 0.12527-0.04956 1.5847-1.1136 3.2431-2.3647 1.6584-1.2511 3.0994-2.308 3.2023-2.3486 0.10298-0.04057 1.6791 1.0476 3.5027 2.4182 1.8236 1.3706 3.341 2.4699 3.372 2.4428 0.031-0.0272-0.4991-1.8003-1.178-3.9405zm23.254-19.116c-0.20972-0.09218-0.47625-0.35018-0.59235-0.57338-0.33733-0.64847-0.21673-2.4727 0.2664-4.0292 0.24252-0.78136 0.44196-1.5948 0.4432-1.8077 1e-3 -0.28535-0.45218-0.72312-1.7279-1.6667-1.878-1.389-2.1114-1.7463-2.1068-3.225 6e-3 -1.7918 0.61229-2.1472 3.6918-2.1626 1.12-0.0045 2.1564-0.05763 2.303-0.11547 0.15499-0.06107 0.56947-1.0402 0.98961-2.3372 0.39761-1.2276 0.83735-2.3496 0.97714-2.4935 0.37152-0.3822 1.5792-0.67078 2.2165-0.52966 1.3202 0.29234 1.4366 0.44752 2.1974 2.9304 0.44217 1.4429 0.81429 2.3579 0.98663 2.426 0.15211 0.06015 1.1931 0.11386 2.3131 0.11939 1.12 0.0045 2.3103 0.10648 2.6452 0.22448 0.72448 0.25502 1.1074 0.95765 1.1074 2.0321 0 1.3071-0.31664 1.7625-2.1728 3.126-1.9742 1.4501-1.9566 1.4027-1.2724 3.4187 0.6124 1.8046 0.67321 3.7554 0.1344 4.3103-0.41748 0.42986-1.6024 0.63756-2.5708 0.45065-0.33534-0.06475-1.263-0.59914-2.0615-1.1876-0.79851-0.5885-1.5934-1.0707-1.7664-1.0715-0.17305-6.91e-4 -1.0176 0.49967-1.8767 1.1122-1.4585 1.0398-1.6344 1.1171-2.6523 1.1653-0.59957 0.02836-1.2617-0.02375-1.4714-0.11616zm3.552-3.3749c1.2945-0.96283 2.394-1.7407 2.4435-1.7287 0.0496 0.01384 1.1475 0.80862 2.4401 1.7701 1.2926 0.96143 2.393 1.704 2.4454 1.6501 0.0524-0.05393-0.30566-1.3352-0.79557-2.8475-0.48991-1.5123-0.88942-2.8303-0.88784-2.929 2e-3 -0.16203 1.6812-1.463 4.0536-3.142l0.88803-0.62844-6.2401-0.17932-0.94849-3.0523c-0.52168-1.6788-0.99129-2.9312-1.0435-2.783-0.0523 0.1482-0.49691 1.5217-0.9881 3.0523l-0.89307 2.783-6.1834 0.17932 2.446 1.7955c1.3454 0.98752 2.4466 1.8684 2.4474 1.9576 6.5e-4 0.08921-0.39132 1.4055-0.87124 2.9252-0.47997 1.5197-0.87265 2.8001-0.87265 2.8454 0 0.20374 0.34924-0.02373 2.56-1.6683zm-25.248-10.334c-0.49021-0.17193-0.6611-0.3639-0.86536-0.9718-0.21627-0.64363-0.22039-0.94055-0.02737-1.9751 0.46902-2.5149 0.53388-2.2322-0.72429-3.1559-1.2609-0.92566-1.5914-1.5179-1.5914-2.8512 0-0.98687 0.45047-1.7707 1.13-1.9663 0.23131-0.0666 1.0981-0.12907 1.9263-0.13898 0.97749-0.01152 1.5663-0.09657 1.6783-0.24234 0.09494-0.12354 0.38391-0.88496 0.64216-1.6923 0.25826-0.80729 0.56326-1.5468 0.67775-1.6433 0.4962-0.4182 1.7175-0.5991 2.5904-0.38367 0.97487 0.24059 1.1554 0.49587 1.7462 2.4683 0.19863 0.66336 0.45055 1.2654 0.55974 1.338 0.1092 0.07259 0.88827 0.13299 1.7312 0.1346 1.9983 0.0045 2.6548 0.27491 2.9046 1.2004 0.23236 0.86087 0.2328 1.231 2e-3 2.0844-0.14651 0.54263-0.42905 0.86249-1.4113 1.5975-1.1427 0.85511-1.222 0.95774-1.1402 1.4761 0.0485 0.30639 0.18124 1.1227 0.29519 1.8139 0.29567 1.7937 0.0213 2.6005-0.99741 2.9322-1.0152 0.33052-2.3378 0.03042-3.4493-0.78253-0.46878-0.34288-0.9377-0.62344-1.0421-0.62344-0.10444 0-0.59548 0.28111-1.0914 0.62468-0.8155 0.56501-1.9829 0.99185-2.6714 0.97675-0.14402-0.0045-0.53666-0.1021-0.87262-0.2201zm2.6995-2.9076c0.98785-0.74063 1.8447-1.3466 1.9041-1.3466 0.05946 0 0.92023 0.60599 1.9129 1.3466 0.99269 0.74066 1.8513 1.3466 1.9081 1.3466 0.0569 0-0.20559-0.9456-0.58301-2.1013-0.37738-1.1557-0.68618-2.193-0.68618-2.3051 0-0.11224 0.8189-0.80265 1.8198-1.5346l1.8198-1.3308-4.6791-0.09956-0.72031-2.3291c-0.39619-1.281-0.74793-2.3291-0.78164-2.3291-0.0336 0-0.38445 1.0481-0.7794 2.3292l-0.71809 2.3292-4.7224 0.09956 1.8501 1.326c1.0176 0.7293 1.8501 1.4199 1.8501 1.5346 0 0.11478-0.30878 1.1542-0.68618 2.3099-0.3774 1.1557-0.64533 2.1013-0.59541 2.1013 0.04995 0 0.89897-0.60596 1.8868-1.3466z" fill="#fd5"/>
 </g>
</svg>
