<?xml version="1.0" encoding="UTF-8" standalone="no"?>
<svg
   xmlns:dc="http://purl.org/dc/elements/1.1/"
   xmlns:cc="http://creativecommons.org/ns#"
   xmlns:rdf="http://www.w3.org/1999/02/22-rdf-syntax-ns#"
   xmlns:svg="http://www.w3.org/2000/svg"
   xmlns="http://www.w3.org/2000/svg"
   xmlns:sodipodi="http://sodipodi.sourceforge.net/DTD/sodipodi-0.dtd"
   xmlns:inkscape="http://www.inkscape.org/namespaces/inkscape"
   version="1.1"
   viewBox="0 0 22 22"
   id="svg5"
   sodipodi:docname="drone.svg"
   inkscape:version="1.0.2 (e86c870879, 2021-01-15)">
  <metadata
     id="metadata11">
    <rdf:RDF>
      <cc:Work
         rdf:about="">
        <dc:format>image/svg+xml</dc:format>
        <dc:type
           rdf:resource="http://purl.org/dc/dcmitype/StillImage" />
      </cc:Work>
    </rdf:RDF>
  </metadata>
  <defs
     id="defs9" />
  <sodipodi:namedview
     pagecolor="#ffffff"
     bordercolor="#666666"
     borderopacity="1"
     objecttolerance="10"
     gridtolerance="10"
     guidetolerance="10"
     inkscape:pageopacity="0"
     inkscape:pageshadow="2"
     inkscape:window-width="1920"
     inkscape:window-height="1016"
     id="namedview7"
     showgrid="false"
     inkscape:zoom="55.025764"
     inkscape:cx="9.9783597"
     inkscape:cy="11.866059"
     inkscape:window-x="0"
     inkscape:window-y="27"
     inkscape:window-maximized="1"
     inkscape:current-layer="svg5" />
  <style
     id="current-color-scheme"
     type="text/css">.ColorScheme-Text{color:#232629;}</style>
  <path
     style="color:#232629;font-style:normal;font-variant:normal;font-weight:normal;font-stretch:normal;font-size:medium;line-height:normal;font-family:sans-serif;font-variant-ligatures:normal;font-variant-position:normal;font-variant-caps:normal;font-variant-numeric:normal;font-variant-alternates:normal;font-variant-east-asian:normal;font-feature-settings:normal;font-variation-settings:normal;text-indent:0;text-align:start;text-decoration:none;text-decoration-line:none;text-decoration-style:solid;text-decoration-color:#000000;letter-spacing:normal;word-spacing:normal;text-transform:none;writing-mode:lr-tb;direction:ltr;text-orientation:mixed;dominant-baseline:auto;baseline-shift:baseline;text-anchor:start;white-space:normal;shape-padding:0;shape-margin:0;inline-size:0;clip-rule:nonzero;display:inline;overflow:visible;visibility:visible;isolation:auto;mix-blend-mode:normal;color-interpolation:sRGB;color-interpolation-filters:linearRGB;solid-color:#000000;solid-opacity:1;vector-effect:none;fill:#f9f9f9;fill-opacity:1;fill-rule:nonzero;stroke-width:1;stroke-linecap:butt;stroke-linejoin:miter;stroke-miterlimit:4;stroke-dasharray:none;stroke-dashoffset:0;stroke-opacity:1;color-rendering:auto;image-rendering:auto;shape-rendering:auto;text-rendering:auto;enable-background:accumulate;stop-color:#000000;stop-opacity:1;stroke:none;opacity:1"
     d="M 6,3 C 4.3431458,3 3,4.3431458 3,6 c 0,1.6568542 1.3431458,3 3,3 0.371666,-0.00115 0.7398828,-0.07135 1.0859,-0.20703 0.53927,0.82095 0.91406,1.6424 0.91406,2.207 0,0.56362 -0.37245,1.3845 -0.91016,2.2051 C 6.7424338,13.069581 6.3728545,13.000033 6,12.99999 c -1.6568542,0 -3,1.343146 -3,3 0,1.656854 1.3431458,3 3,3 1.6568542,0 3,-1.343146 3,-3 -0.00124,-0.369592 -0.070771,-0.735773 -0.20508,-1.0801 0.82335,-0.54244 1.6446,-0.91992 2.2051,-0.91992 0.55949,0 1.3782,0.37531 2.2012,0.91602 -0.133447,0.345803 -0.201655,0.713342 -0.20117,1.084 0,1.656854 1.343146,3 3,3 1.656854,0 3,-1.343146 3,-3 0,-1.656854 -1.343146,-3 -3,-3 -0.371666,0.0011 -0.739883,0.07135 -1.0859,0.20703 -0.53927,-0.82094 -0.91406,-1.6424 -0.91406,-2.207 0,-0.56362 0.37244,-1.3845 0.91016,-2.2051 0,0 0.002,0.00195 0.002,0.00195 0.346867,0.1345785 0.715741,0.2034601 1.0878,0.20313 1.656854,0 3,-1.3431458 3,-3 0,-1.6568542 -1.343146,-3 -3,-3 -1.656854,0 -3,1.3431458 -3,3 0.0012,0.3695923 0.07077,0.7357732 0.20508,1.0801 -0.82335,0.54244 -1.6446,0.91992 -2.2051,0.91992 -0.55949,0 -1.3781,-0.37531 -2.2012,-0.91602 C 8.9322765,6.7381969 9.0004848,6.3706582 9,6 9,4.3431458 7.6568542,3 6,3 Z M 6,4 C 7.1045695,4 8,4.8954305 8,6 7.9997612,6.1525569 7.9820681,6.3045856 7.947266,6.45312 7.489476,6.08429 7.054656,5.69421 6.707066,5.29292 6.5229234,5.108687 6.2741617,5.003576 6.013706,4.99995 c -0.2699298,-0.00362 -0.5298586,0.1020385 -0.7207,0.29297 -0.3904486,0.3905113 -0.3904486,1.0235887 0,1.4141 0.018793,0.019005 0.03834,0.037249 0.058594,0.054688 0.38246,0.33379 0.75517,0.74764 1.1074,1.1836 -0.1503656,0.035907 -0.3043872,0.054259 -0.45898,0.054688 -1.1045695,0 -2,-0.8954305 -2,-2 0,-1.1045695 0.8954305,-2 2,-2 z m 10,0 c 1.104569,0 2,0.8954305 2,2 0,1.1045695 -0.895431,2 -2,2 -0.15394,-5.793e-4 -0.307299,-0.01893 -0.45703,-0.054687 0.37051,-0.4592 0.76196,-0.89517 1.1641,-1.2383 0.390449,-0.3905113 0.390449,-1.0235887 0,-1.4141 -0.390511,-0.3904486 -1.023589,-0.3904486 -1.4141,0 -0.01827,0.017554 -0.03586,0.035797 -0.05274,0.054687 -0.33761,0.38184 -0.7507,0.75434 -1.1855,1.1055 -0.03546,-0.1484583 -0.05381,-0.300488 -0.05469,-0.45312 0,-1.1045695 0.895431,-2 2,-2 z M 6,14 c 0.1539404,5.8e-4 0.3072991,0.01893 0.45703,0.05469 -0.37051,0.4592 -0.76195,0.89516 -1.1641,1.2383 -0.3904486,0.390511 -0.3904486,1.023589 0,1.4141 0.3905113,0.390449 1.0235887,0.390449 1.4141,0 0.018264,-0.01756 0.035855,-0.0358 0.052734,-0.05469 0.33762,-0.38186 0.75071,-0.75433 1.1855,-1.1055 0.03546,0.148458 0.053809,0.300488 0.054688,0.45312 0,1.104569 -0.8954305,2 -2,2 -1.1045695,0 -2,-0.895431 -2,-2 0,-1.104569 0.8954305,-2 2,-2 z m 10,0 c 1.104569,0 2,0.895431 2,2 0,1.104569 -0.895431,2 -2,2 -1.104569,0 -2,-0.895431 -2,-2 2.37e-4,-0.152557 0.01793,-0.304585 0.05273,-0.45312 0.45779,0.36884 0.8926,0.7589 1.2402,1.1602 0.390511,0.390449 1.023589,0.390449 1.4141,0 0.390449,-0.390511 0.390449,-1.023589 0,-1.4141 -0.01717,-0.01465 -0.0336,-0.03387 -0.05078,-0.04883 -0.0026,-0.002 -0.0052,-0.0039 -0.0078,-0.0059 -0.38248,-0.33373 -0.75518,-0.7476 -1.1074,-1.1836 0.150366,-0.03591 0.304387,-0.05426 0.45898,-0.05469 z"
     id="path3" />
</svg>
