<?xml version="1.0" encoding="UTF-8"?>
<svg width="200" height="200" version="1.1" xmlns="http://www.w3.org/2000/svg">
 <g stroke="#000">
  <path d="m30.495 85.757 138.93 0.11681-0.33645 26.478c-0.01 20.067-29.582 35.614-68.308 35.614-38.725 0-70.118-16.144-70.118-36.058m-0.1636-26.15 0.16971 26.427z" fill="#fff" stroke-width=".99946px"/>
  <path d="m169.42 85.874c0 19.529-31.096 35.361-69.454 35.361-38.359 0-69.454-15.832-69.454-35.361 0-19.529 31.096-35.361 69.454-35.361 38.359-2e-6 69.454 15.832 69.454 35.361z" fill="#fff" stroke-width="1.0242"/>
  <path d="m87.045 128.23h11.717l11.717-0.0346c3.0233-9e-3 2.9994 0.0137 3.0084 2.991l0.0238 7.934c9e-3 3.0108 0.22488 2.9993-2.9911 3.0088l-11.738 0.0346h-11.738c-3.216 0-3.0002 0.0108-3-3l4.41e-4 -7.934c1.65e-4 -2.9773-0.02372-2.9998 2.9996-2.9998z" fill-opacity=".84188" opacity=".996" stroke-width=".56621"/>
  <ellipse cx="102.54" cy="135.17" rx="5.2054" ry="5.08" fill="#e4e4e4" fill-opacity=".5" opacity=".996" stroke-width=".4385"/>
  <ellipse cx="93.099" cy="135.17" rx="4.1261" ry="4.0267" fill="#4b4b4b" opacity=".996" stroke-width=".34758"/>
  <g transform="matrix(.4703 0 0 .59859 29.455 -32.502)" fill="#000948" stroke-width="1.0008">
   <path d="m61.651 134.29h176.7l32.974 83.763h-242.65z"/>
   <path d="m56.513 147.35h186.97"/>
   <path d="m50.74 162.01h198.52"/>
   <path d="m44.208 178.61h211.58"/>
   <path d="m36.755 197.54h226.49"/>
   <path d="m96.991 134.29-19.785 83.763"/>
   <path d="m132.33 134.29-6.5949 83.763"/>
   <path d="m167.67 134.29 6.5949 83.763"/>
   <path d="m203.01 134.29 19.785 83.763"/>
  </g>
 </g>
</svg>
